<?xml version="1.0" encoding="iso-8859-1"?>
<!-- Generator: Adobe Illustrator 19.0.0, SVG Export Plug-In . SVG Version: 6.00 Build 0)  -->
<svg version="1.1" id="Capa_1" xmlns="http://www.w3.org/2000/svg" xmlns:xlink="http://www.w3.org/1999/xlink" x="0px" y="0px"
	 viewBox="0 0 57 57" style="enable-background:new 0 0 57 57;" xml:space="preserve">
<rect x="1.477" y="37.594" transform="matrix(0.816 -0.578 0.578 0.816 -22.8241 9.4781)" style="fill:#8697CB;" width="4" height="6"/>
<path style="fill:#556080;" d="M9.006,36.972l-1.554-1.147l-0.28,0.035c-1.169,0.145-2.341-0.594-3.295-1.675l-1.657,1.174
	l5.78,8.16l4.76-2.045C11.147,40.624,9.743,38.799,9.006,36.972z"/>
<path style="fill:#556080;" d="M41.191,44.912c0.512,0.883,0.809,1.906,0.809,3s-0.298,2.117-0.809,3H51v-6H41.191z"/>
<path style="fill:#556080;" d="M30.681,45.14c0.785-1.503,2.187-2.627,3.87-3.045c-2.353-2.148-2.551-5.972-3.115-9.183
	l-8.503,5.264c2.781,2.053,6.366,4.045,6.964,7.45v0L30.681,45.14z"/>
<path style="fill:#BDC3C7;" d="M44.265,16.988L8.624,38.832c-2.165,1.327-6.042-1.058-7.369-3.223L0,33.562l43.483-26.65
	l1.255,2.048C46.065,11.125,46.431,15.661,44.265,16.988z"/>
<path style="fill:#ECF0F1;" d="M47.875,14.078l-0.448-0.731c-0.218-0.356-0.635-0.536-1.047-0.458
	c-0.411,0.082-0.727,0.411-0.793,0.824c-0.104,0.653-0.359,1.513-0.991,1.9L9.325,37.23c-0.24,0.147-0.407,0.389-0.46,0.666
	c-0.053,0.276,0.014,0.563,0.183,0.788c1.48,1.97,4.454,3.964,7.273,3.964c0,0,0,0,0,0c0.92,0,1.744-0.219,2.447-0.65l27.974-17.145
	c1.493-0.915,2.368-2.737,2.464-5.131C49.289,17.714,48.778,15.551,47.875,14.078z"/>
<path style="fill:#363E51;" d="M57,55h-3.912C51.935,55,51,54.065,51,52.912V43c0-1.153,0.935-2.088,2.088-2.088H57V55z"/>
<path style="fill:#90BAE1;" d="M36,40.912c-3.86,0-7,3.14-7,7s3.14,7,7,7s7-3.14,7-7S39.86,40.912,36,40.912z M36,49.912
	c-1.103,0-2-0.897-2-2s0.897-2,2-2s2,0.897,2,2S37.103,49.912,36,49.912z"/>
<polyline style="fill:none;stroke:#556080;stroke-width:2;stroke-linecap:round;stroke-miterlimit:10;" points="45,20 53,20 53,3 
	"/>
<g>
</g>
<g>
</g>
<g>
</g>
<g>
</g>
<g>
</g>
<g>
</g>
<g>
</g>
<g>
</g>
<g>
</g>
<g>
</g>
<g>
</g>
<g>
</g>
<g>
</g>
<g>
</g>
<g>
</g>
</svg>
